<svg version="1.1" xmlns="http://www.w3.org/2000/svg" xmlns:xlink="http://www.w3.org/1999/xlink" x="0px" y="0px" viewBox="0 0 1000 1000" enable-background="new 0 0 1000 1000" xml:space="preserve">
<metadata> Svg Vector Icons : http://www.onlinewebfonts.com/icon </metadata>
<g><g><g><path d="M984.7,748.4c-3.5-3.6-8.1-5.3-13.6-5.3H401.2c-5.5,0-10.1,1.8-13.7,5.3c-3.6,3.6-5.3,8.1-5.3,13.6v38c0,5.5,1.8,10.1,5.3,13.6c3.6,3.6,8.1,5.3,13.7,5.3H971c5.5,0,10.1-1.8,13.6-5.3c3.6-3.6,5.3-8.1,5.3-13.6v-38C990,756.5,988.2,752,984.7,748.4z"/><path d="M72.9,186.9c-4-4-8.5-5.9-13.7-5.9c-5.1,0-9.7,2-13.6,5.9l-29.7,29.7c-4,4-5.9,8.5-5.9,13.6c0,5.2,2,9.7,5.9,13.7l233.3,233.3L15.9,710.4c-4,4-5.9,8.5-5.9,13.6c0,5.2,2,9.7,5.9,13.7l29.7,29.7c4,4,8.5,5.9,13.6,5.9s9.7-2,13.7-5.9l276.6-276.6c4-4,5.9-8.5,5.9-13.7c0-5.1-2-9.7-5.9-13.6L72.9,186.9z"/></g></g><g></g><g></g><g></g><g></g><g></g><g></g><g></g><g></g><g></g><g></g><g></g><g></g><g></g><g></g><g></g></g>
</svg>
